<?xml version="1.0" encoding="UTF-8" standalone="no"?>
<!-- Created with Inkscape (http://www.inkscape.org/) -->
<svg id="svg4308" xmlns:rdf="http://www.w3.org/1999/02/22-rdf-syntax-ns#" xmlns="http://www.w3.org/2000/svg" height="22" width="22" version="1.1" xmlns:cc="http://creativecommons.org/ns#" xmlns:dc="http://purl.org/dc/elements/1.1/" viewBox="0 0 21.999999 21.999999">
 <metadata id="metadata4313">
  <rdf:RDF>
   <cc:Work rdf:about="">
    <dc:format>image/svg+xml</dc:format>
    <dc:type rdf:resource="http://purl.org/dc/dcmitype/StillImage"/>
    <dc:title/>
   </cc:Work>
  </rdf:RDF>
 </metadata>
 <g id="layer1" transform="translate(0 -1030.4)">
  <g id="g4281" transform="matrix(.15497 0 0 .15497 -42.539 1013.4)">
   <path id="path4287" fill="#5a8dc7" d="m332.21 249.42c-8.5011-1.8252-16.201-4.9726-23-9.4012l-5.5-3.5826 21.25-0.26989 21.25-0.26989v-8.9652-8.9652l-29.75-0.26488-29.75-0.26488-3.75-7.3866c-6.1773-12.168-9.0004-11.113 29.75-11.113h33.5v-9-9h-35-35v-4.5214c0-3.8505 0.37038-4.6902 2.4959-5.6587 2.0782-0.94689 2.8523-0.81777 4.6249 0.77144l2.129 1.9087-0.70913-3.2715c-0.58675-2.7069-0.3063-3.6072 1.625-5.2167l2.3342-1.9452-3.1522-0.0333c-2.59-0.0273-3.3387-0.56829-4.198-3.0333-1.3006-3.731 0.34038-9.4096 2.4817-8.5879 1.0396 0.39895 1.2412-0.0711 0.79417-1.8521-0.41661-1.6599 0.0364-3.0222 1.4876-4.4734 1.1477-1.1477 2.0867-2.511 2.0867-3.0298 0-1.3745 10.944-14.057 12.13-14.057 0.58027 0 0.70964 0.92986 0.30621 2.201-0.69072 2.1763-0.66827 2.1811 2.0028 0.43097 2.5268-1.6556 2.8647-1.6629 5.2299-0.11321l2.5286 1.6568-0.63661-2.8985c-0.48662-2.2156-0.13399-3.3533 1.4968-4.8291l2.1334-1.9307-2.3455-0.5625c-2.0173-0.4838-1.436-1.0089 4.1545-3.7528 9.1614-4.4965 20.679-7.2019 30.66-7.2019h8.34v30.5 30.5h30.539 30.539l-0.28894 8.75-0.28893 8.75-30.235 0.26464-30.235 0.26464-0.26464 30.235-0.26464 30.235-7.5 0.18965c-4.125 0.10431-10.425-0.43836-14-1.2059zm-23.952-77.958 2.2016 1.9743-0.70913-3.2715c-0.58675-2.7069-0.3063-3.6072 1.625-5.2167l2.3342-1.9452-3.2214-0.0333c-2.784-0.0288-3.3359-0.47459-4.0643-3.2833l-0.84287-3.25-1.1337 3.25c-0.96626 2.77-1.6214 3.2547-4.4357 3.2817l-3.302 0.0317 2.7058 2.0195c2.3097 1.7239 2.5659 2.3875 1.75 4.5334-1.3244 3.4835-1.311 3.4946 1.9676 1.6129 2.7816-1.5964 3.0302-1.582 5.1249 0.29651zm24.036-0.70498c2.7593 1.7232 3.2065 1.4749 2.4893-1.3824-0.48732-1.9416-0.0899-3.0229 1.6416-4.4667l2.2846-1.905-3.1705-0.0333c-2.7495-0.0289-3.268-0.46487-3.9044-3.2833l-0.73387-3.25-1.3484 3.25c-1.1152 2.6878-1.8902 3.25-4.4804 3.25h-3.132l2.5946 2.0409c2.1989 1.7297 2.4482 2.4258 1.6348 4.5651-1.352 3.556-1.2697 3.6433 1.6384 1.7378 2.0821-1.3643 2.9731-1.4682 4.4864-0.52306zm-28.998-20.399c1.5922-1.4409 1.9801-1.4239 4.4511 0.19516l2.7069 1.7736-0.68039-3.0978c-0.55688-2.5354-0.2664-3.3877 1.6002-4.6952l2.2806-1.5974h-2.7708c-2.1769 0-3.0659-0.69661-4.1478-3.25-1.4126-3.334-1.4055-3.3382-2.9951 1.75-0.26502 0.84828-1.6442 1.5-3.1743 1.5h-2.7057l2.0671 2.25c1.5623 1.7005 1.8569 2.7995 1.2065 4.5-1.01 2.6408-0.26876 2.8711 2.1617 0.67154zm25.281 0.10055c1.6248-1.2305 2.1984-1.1974 4.4143 0.25446l2.5469 1.6688-0.73216-2.9172c-0.59587-2.3741-0.3007-3.2491 1.5857-4.7004l2.3179-1.7833-2.7983-0.0222c-2.1762-0.0173-3.0899-0.71585-4.1102-3.1425l-1.312-3.1203-1.0877 3.1203c-0.86371 2.4776-1.6648 3.1271-3.8898 3.1535l-2.802 0.0333 2.2572 1.8828c1.8849 1.5723 2.0951 2.309 1.2748 4.4667-1.0982 2.8884-0.43347 3.2031 2.3355 1.106zm4.717-19.964 2.1655 1.9417-0.6791-3.1348c-0.57233-2.6419-0.2563-3.4674 2.0099-5.25l2.689-2.1152h-3.4418c-2.8349 0-3.626-0.48493-4.486-2.75l-1.0442-2.75-1.1241 2.75c-0.89888 2.1991-1.7801 2.7564-4.3988 2.7817l-3.2748 0.0317 2.7058 2.0195c2.3097 1.7239 2.5659 2.3875 1.75 4.5334-1.3696 3.6024-1.2748 3.6852 2.0037 1.7486 2.8451-1.6807 3.0431-1.6732 5.125 0.19346zm29.916 99.942c0-9.625 0.34484-17.5 0.76631-17.5 1.1596 0 23.234 22.379 23.234 23.554 0 2.2259-18.133 11.446-22.511 11.446-1.2623 0-1.4893-2.6671-1.4893-17.5zm15.5-15.747-15-15.241 3.9247-0.32705c3.8384-0.31987 4.2219-0.0298 17.448 13.196 13.375 13.375 13.503 13.546 11.67 15.571-1.0191 1.1261-2.1207 2.0461-2.448 2.0444-0.32725-0.002-7.345-6.8614-15.595-15.244zm9-3.7532-11.969-12h18.234c14.8 0 18.234 0.25882 18.234 1.3743 0 4.3559-9.2645 22.626-11.473 22.626-0.58182 0-6.4438-5.4-13.027-12zm-10.5-48.766c0-0.4211 5.3398-6.0915 11.866-12.601l11.866-11.835 3.5518 5.851c3.7201 6.1282 7.7156 15.391 7.7156 17.888 0 1.2282-2.8079 1.463-17.5 1.463-9.625 0-17.5-0.34453-17.5-0.76563zm-14-3.9983c0-3.5006 0.94388-4.7058 13.493-17.229l13.493-13.465 2.257 2.2643 2.257 2.2643-15 14.928c-8.25 8.2106-15.338 14.945-15.75 14.965-0.4125 0.0201-0.75-1.6573-0.75-3.7274zm0-26.736c0-14.177 0.26093-17.5 1.3743-17.5 4.3568 0 22.626 9.2647 22.626 11.474 0 1.1765-22.102 23.526-23.266 23.526-0.40389 0-0.73435-7.875-0.73435-17.5z"/>
   <path id="path4285" fill="#0452b3" d="m331.71 249.33c-7.4072-1.5655-21.309-7.6817-25.5-11.219l-2.5-2.11 21.25-0.0333 21.25-0.0332v-8.9851-8.9851l-29.75-0.26488-29.75-0.26488-3.75-7.3866c-6.1773-12.168-9.0004-11.113 29.75-11.113h33.5v-9-9h-35.128-35.128l0.66114-4.25c0.89235-5.7363 3.0499-7.3235 6.387-4.6985 3.1217 2.4555 3.7445 1.9279 2.372-2.0094-0.95531-2.7404-0.8107-3.2278 1.3844-4.6661 3.3944-2.2241 3.0636-3.376-0.96943-3.376-2.9724 0-3.5052-0.3854-4.0666-2.9414-0.78296-3.5648 0.92192-7.2128 2.9985-6.4159 1.1772 0.45175 1.3578-0.0471 0.88058-2.4331-0.45134-2.2567-0.0782-3.5234 1.5039-5.1055 1.1573-1.1573 2.105-2.6667 2.106-3.3542 0.00099-0.6875 2.495-3.95 5.5422-7.25 3.9789-4.3089 5.358-5.3325 4.8932-3.6317-0.35595 1.3026-0.26246 2.1881 0.20775 1.9679 0.47022-0.22023 2.0906-1.0199 3.6009-1.777 2.404-1.2052 2.9742-1.17 4.5787 0.28209 2.7385 2.4783 3.2616 2.0503 2.5943-2.1227-0.5406-3.3807-0.31692-3.9353 2.1113-5.2349l2.716-1.4535-2.3731-0.56788-2.3731-0.56789 2.7005-1.7798c6.7181-4.4277 27.182-9.1866 36.3-8.4415l4 0.32686 0.26464 30.235 0.26464 30.235 30.235 0.26464 30.235 0.26464v8.5 8.5l-30.235 0.26464-30.235 0.26464-0.26464 30.235-0.26464 30.235-7.5 0.18762c-4.125 0.10318-10.65-0.47812-14.5-1.2918zm-28.792-77.381c2.5206-1.9827 2.5278-1.9826 5.4077 0.0681 3.0463 2.1692 3.482 1.621 1.9386-2.4386-0.7965-2.095-0.56054-2.738 1.5-4.0882 3.2968-2.1602 3.0802-3.556-0.55195-3.556-2.4279 0-3.2627-0.61728-4.3955-3.25l-1.3983-3.25-1.2024 3.25c-1.0337 2.7942-1.6795 3.25-4.6045 3.25-4.0508 0-4.3375 1.1572-0.85245 3.4406 2.5209 1.6518 2.5846 2.3108 0.70605 7.3094-0.67784 1.8037 0.55999 1.5401 3.4527-0.73534zm30.709 0.27107 2.8764 2.0953-0.71292-3.8002c-0.5974-3.1844-0.37817-4.0347 1.353-5.2472 2.9222-2.0468 2.5627-3.3336-0.93124-3.3336-2.4279 0-3.2627-0.61728-4.3955-3.25l-1.3983-3.25-1.2024 3.25c-1.0337 2.7942-1.6795 3.25-4.6045 3.25-4.0724 0-4.2521 0.74714-0.83536 3.4716 2.2107 1.7627 2.4277 2.4127 1.5638 4.6847-1.3443 3.5358-0.40959 4.1785 2.7771 1.9094 2.5894-1.8438 2.6817-1.8402 5.5099 0.22006zm-22.88-21.939c-0.60275-3.2129-0.34491-3.9319 2.1387-5.964l2.8241-2.3107-3.802-0.036c-3.3116-0.0313-3.9369-0.42292-4.8478-3.036-0.5752-1.65-1.416-3-1.8685-3s-1.1192 1.35-1.4816 3c-0.58434 2.6605-1.0743 3.0036-4.3294 3.0316l-3.6706 0.0316 2.705 2.3818c2.35 2.0691 2.5888 2.787 1.8198 5.4684-1.0144 3.5368 0.21589 4.0837 3.1708 1.4096 1.7409-1.5755 2.0181-1.5486 4.5787 0.44444 3.5844 2.7899 3.5555 2.8047 2.7628-1.4208zm25 0c-0.60275-3.2129-0.34491-3.9319 2.1387-5.964l2.8241-2.3107-3.7471-0.036c-3.2595-0.0313-3.9291-0.45891-5.1455-3.286l-1.3983-3.25-1.2024 3.25c-1.0519 2.8434-1.6593 3.254-4.8545 3.2816l-3.6522 0.0316 2.8381 2.4962c2.5361 2.2306 2.7278 2.8126 1.802 5.4684-1.202 3.448 0.0774 3.9903 3.0555 1.2951 1.7409-1.5755 2.0181-1.5486 4.5787 0.44444 3.5844 2.7899 3.5555 2.8047 2.7628-1.4208zm-7.2913-19.287c2.404-1.2052 2.9742-1.17 4.5787 0.28209 2.7089 2.4515 3.3384 2.045 2.6355-1.7018-0.53647-2.8596-0.22505-3.6793 2.0895-5.5l2.72-2.1395h-3.4992c-3.1151 0-3.6607-0.41156-4.9711-3.75l-1.472-3.75-1.6127 3.75c-1.3969 3.2482-2.0545 3.7507-4.9137 3.755l-3.301 0.005 2.8168 2.2542c2.5152 2.0128 2.7026 2.5546 1.75 5.0601-1.2637 3.3238-1.3223 3.9669-0.31682 3.477 0.4125-0.20098 1.9857-0.98488 3.4959-1.742zm35.754 99.637v-17.164l11.507 11.474c11.486 11.454 11.503 11.477 9.2921 13.145-2.9268 2.2077-14.302 7.8455-17.928 8.8854l-2.8709 0.82337v-17.164zm14.5-16.033-15-15.164 3.9247-0.32078c3.8361-0.31354 4.23-0.0155 17.448 13.203 13.375 13.375 13.503 13.546 11.67 15.571-1.0191 1.1261-2.1207 2.0087-2.448 1.9614-0.32725-0.0474-7.345-6.9099-15.595-15.25zm10.5-3.1639-11.467-11.5h17.22 17.22l-2.1292 5.6908c-1.7768 4.7488-8.4214 17.309-9.1569 17.309-0.12012 0-5.3787-5.175-11.686-11.5zm-26-53.264c0-3.5006 0.94388-4.7058 13.493-17.229l13.493-13.465 2.166 2.166 2.166 2.166-14.909 15.048c-8.2 8.2764-15.247 15.055-15.659 15.063-0.4125 0.008-0.75-1.6785-0.75-3.7487zm25.929-7.6646c11.314-11.347 11.408-11.413 13.043-9.25 2.8858 3.8172 5.6903 9.1588 7.8764 15.002l2.1239 5.6766h-17.22-17.22l11.396-11.428zm-24.929-19.558v-16.986l5.6908 2.1292c3.13 1.1711 8.3578 3.6923 11.617 5.6026l5.9265 3.4734-11.351 11.383c-6.2431 6.2608-11.471 11.383-11.617 11.383-0.14647 0-0.26631-7.6437-0.26631-16.986z"/>
   <path id="path4283" fill="#d70429" d="m331.71 249.33c-7.4072-1.5655-21.309-7.6817-25.5-11.219l-2.5-2.11 21.25-0.0333 21.25-0.0332v-8.9851-8.9851l-29.75-0.26488-29.75-0.26488-3.75-7.3866c-6.1773-12.168-9.0004-11.113 29.75-11.113h33.5v-44.06-44.06l3.75 0.31036 3.75 0.31037 0.26464 30.235 0.26464 30.235 30.235 0.26464 30.235 0.26464v8.5 8.5l-30.235 0.26464-30.235 0.26464-0.26464 30.235-0.26464 30.235-7.5 0.18762c-4.125 0.10318-10.65-0.47812-14.5-1.2918zm47-34.732-15-15.164 3.9247-0.32078c3.8361-0.31354 4.23-0.0155 17.448 13.203 13.375 13.375 13.503 13.546 11.67 15.571-1.0191 1.1261-2.1207 2.0087-2.448 1.9614-0.32725-0.0474-7.345-6.9099-15.595-15.25zm-15.5-56.428c0-3.5006 0.94388-4.7058 13.493-17.229l13.493-13.465 2.166 2.166 2.166 2.166-14.909 15.048c-8.2 8.2764-15.247 15.055-15.659 15.063-0.4125 0.008-0.75-1.6785-0.75-3.7487z"/>
  </g>
 </g>
</svg>
