<?xml version="1.0" encoding="UTF-8" standalone="no"?>
<!-- Created with Inkscape (http://www.inkscape.org/) -->
<svg id="svg4308" xmlns:rdf="http://www.w3.org/1999/02/22-rdf-syntax-ns#" xmlns="http://www.w3.org/2000/svg" height="22" width="22" version="1.1" xmlns:cc="http://creativecommons.org/ns#" xmlns:dc="http://purl.org/dc/elements/1.1/" viewBox="0 0 21.999999 21.999999">
 <metadata id="metadata4313">
  <rdf:RDF>
   <cc:Work rdf:about="">
    <dc:format>image/svg+xml</dc:format>
    <dc:type rdf:resource="http://purl.org/dc/dcmitype/StillImage"/>
    <dc:title/>
   </cc:Work>
  </rdf:RDF>
 </metadata>
 <g id="layer1" transform="translate(0 -1030.4)">
  <g id="g4300" transform="matrix(.15482 0 0 .15482 -64.11 991.69)">
   <path id="path4306" fill="#95c4fb" d="m468.21 388.88c-52.866-13.733-70.778-79.467-32.076-117.72 13.216-13.061 27.616-19.169 47.102-19.977 14-0.58116 20.538 0.82185 33.512 7.1914 10.791 5.2981 20.383 13.654 26.811 23.357 3.6801 5.5553 7.6509 13.25 7.6509 14.826 0 0.20784-15.075 0.37788-33.5 0.37788h-33.5v24 24h33.5c18.425 0 33.5 0.26879 33.5 0.59731 0 0.32851-1.8241 4.1035-4.0536 8.3888-8.9603 17.223-24.487 29.554-44.033 34.971-9.7388 2.6988-24.49 2.6923-34.913-0.0152z"/>
   <path id="path4304" fill="#fdd843" d="m468.21 388.88c-25.727-6.6831-44.756-26.111-50.972-52.041-7.0038-29.216 6.3725-60.973 32.086-76.176 7.6943-4.5493 20.09-8.6319 28.628-9.4293l6.2576-0.58435v70.145 70.145l-4.25-0.0551c-2.3375-0.0303-7.625-0.93178-11.75-2.0033z"/>
   <path id="path4302" fill="#d70327" d="m470.71 389.3c-3.85-0.81002-11.253-3.5274-16.451-6.0387-7.9617-3.8463-10.803-5.9261-18.028-13.196-5.9341-5.9706-9.7239-10.832-12.299-15.776-2.0469-3.9304-3.7216-7.6429-3.7216-8.25 0-0.78203 9.3278-1.1038 32-1.1038h32v23 23l-3.25-0.0815c-1.7875-0.0448-6.4-0.74427-10.25-1.5543zm-50.5-93.468c0-0.60707 1.6747-4.3196 3.7216-8.25 2.5748-4.9442 6.3646-9.8054 12.299-15.776 7.2311-7.2755 10.06-9.3454 18.028-13.19 8.7541-4.2236 21.09-7.6805 27.409-7.6805h2.5422v23 23h-32c-22.672 0-32-0.32174-32-1.1038z"/>
  </g>
 </g>
</svg>
