<?xml version="1.0" encoding="UTF-8" standalone="no"?>
<svg
   xmlns:dc="http://purl.org/dc/elements/1.1/"
   xmlns:cc="http://creativecommons.org/ns#"
   xmlns:rdf="http://www.w3.org/1999/02/22-rdf-syntax-ns#"
   xmlns:svg="http://www.w3.org/2000/svg"
   xmlns="http://www.w3.org/2000/svg"
   xmlns:sodipodi="http://sodipodi.sourceforge.net/DTD/sodipodi-0.dtd"
   xmlns:inkscape="http://www.inkscape.org/namespaces/inkscape"
   width="100"
   height="50"
   viewBox="-10 -10 100 50"
   id="svg2"
   version="1.1"
   inkscape:version="0.91 r13725"
   sodipodi:docname="logo2.svg">
  <metadata
     id="metadata14">
    <rdf:RDF>
      <cc:Work
         rdf:about="">
        <dc:format>image/svg+xml</dc:format>
        <dc:type
           rdf:resource="http://purl.org/dc/dcmitype/StillImage" />
        <dc:title></dc:title>
      </cc:Work>
    </rdf:RDF>
  </metadata>
  <defs
     id="defs12" />
  <sodipodi:namedview
     pagecolor="#ffffff"
     bordercolor="#666666"
     borderopacity="1"
     objecttolerance="10"
     gridtolerance="10"
     guidetolerance="10"
     inkscape:pageopacity="0"
     inkscape:pageshadow="2"
     inkscape:window-width="1855"
     inkscape:window-height="1056"
     id="namedview10"
     showgrid="false"
     inkscape:zoom="2.8284271"
     inkscape:cx="45.415447"
     inkscape:cy="72.849108"
     inkscape:window-x="65"
     inkscape:window-y="24"
     inkscape:window-maximized="1"
     inkscape:current-layer="svg2" />
  <g
     id="g4770"
     transform="matrix(0.41748561,0,0,0.41748561,-86.668039,-91.812056)">
    <path
       style="fill:#e8e8e8"
       d="m 222.06902,290.98273 c -12.90718,-7.8696 -7.32838,-28.0054 7.75914,-28.0054 5.19017,0 9.86026,2.53474 13.35036,7.24606 4.39454,5.93223 1.66966,16.96922 -5.18558,21.00394 -4.07287,2.39712 -11.78546,2.27865 -15.92392,-0.2446 z m 13.44469,-7.17971 c 3.0531,-2.86825 3.11971,-8.33963 0.14014,-11.51124 -4.70188,-5.00491 -13.82569,-1.25292 -13.82569,5.68555 0,6.82737 8.6843,10.52411 13.68555,5.82569 z m 19.31445,5.67431 0,-3.5 8.5,0 8.5,0 0,-18.95431 0,-18.95431 -6.75,-0.29569 -6.75,-0.29569 -0.31037,-3.75 -0.31036,-3.75 11.56036,0 11.56037,0 0,23 0,23 8.5,0 8.5,0 0,3.5 0,3.5 -21.5,0 -21.5,0 0,-3.5 z m 58,-23 0,-26.5 5,0 c 4.96812,0 5.00019,0.0207 5.03041,3.25 0.0253,2.70036 0.20345,2.95285 1.05363,1.49297 3.0285,-5.20045 15.35932,-7.399 21.88107,-3.90134 6.64451,3.56348 7.49555,6.91864 7.84,30.90837 l 0.30511,21.25 -4.55511,0 -4.55511,0 -0.006,-17.75 c -0.006,-20.62633 -0.76848,-24.56468 -5.19577,-26.85412 -3.69326,-1.90986 -9.10268,-1.32169 -12.06069,1.31138 -4.05259,3.60777 -4.73754,7.33187 -4.73754,25.76062 l 0,17.53212 -5,0 -5,0 0,-26.5 z m 82.19186,24.4756 c -3.52011,-2.14615 -7.14794,-8.73172 -7.14794,-12.9756 0,-4.29667 3.51653,-10.56523 7.20603,-12.84546 4.92696,-3.04503 12.15457,-2.92322 16.875,0.28439 9.01579,6.1264 9.00394,19.26086 -0.0228,25.29114 -4.46053,2.97982 -12.24022,3.09278 -16.91026,0.24553 z m 13.50645,-6.47684 c 2.94804,-2.06489 3.79375,-6.64653 1.9021,-10.30459 -2.14505,-4.14808 -7.19418,-5.55231 -11.56097,-3.21528 -4.25558,2.27752 -4.43953,10.63016 -0.30328,13.77111 2.24265,1.703 7.3562,1.57404 9.96215,-0.25124 z M 193.43515,269.39554 c -0.33385,-0.86998 -0.60699,-1.94904 -0.60699,-2.3979 0,-0.44886 10.89192,-5.17345 24.20428,-10.49909 22.64883,-9.06071 24.28841,-9.56791 25.51348,-7.89253 0.72006,0.98474 1.17371,2.1969 1.00811,2.69369 -0.31614,0.94842 -46.33392,19.67762 -48.34805,19.67762 -0.64011,0 -1.43699,-0.7118 -1.77083,-1.58179 z m 173.0493,-0.62454 c -0.31733,-1.21348 -0.48231,-2.29647 -0.36663,-2.40665 0.11569,-0.11017 11.16898,-4.58172 24.56287,-9.93678 19.68355,-7.86975 24.52436,-9.46938 25.24875,-8.34336 0.49292,0.76622 0.78428,2.03092 0.64747,2.81044 -0.224,1.27629 -45.47632,20.05171 -48.38212,20.07399 -0.62335,0.005 -1.393,-0.98416 -1.71034,-2.19764 z M 197.81256,254.15334 c -2.1469,-1.12385 -4.37285,-3.52293 -5.79897,-6.25 -5.49428,-10.50639 1.42211,-22.09268 13.18815,-22.09268 8.49861,0 14.6295,5.61773 15.32734,14.04443 0.98013,11.83556 -11.91547,19.95232 -22.71652,14.29825 z m 12.10226,-6.45781 c 2.68904,-2.06458 4.08406,-5.66444 3.40073,-8.77561 -1.74345,-7.93788 -14.22887,-7.94909 -15.97163,-0.0143 -0.68355,3.11219 1.43927,8.48754 3.7132,9.40245 2.36453,0.95137 7.26189,0.61271 8.8577,-0.61251 z m 161.41334,6.42124 c -5.22745,-3.22897 -6.80587,-5.78273 -7.30666,-11.8216 -0.53355,-6.43382 1.37543,-11.15004 5.64572,-13.94804 10.67042,-6.99153 24.1682,0.17751 24.1572,12.83054 -0.01,11.28061 -13.04422,18.77757 -22.49626,12.9391 z m 13.04545,-7.59399 c 4.99494,-4.99493 1.64707,-13.54545 -5.30358,-13.54545 -4.9991,0 -8.24187,3.18763 -8.24187,8.10173 0,7.08749 8.48977,10.49941 13.54545,5.44372 z m -112.54545,-21.04545 0,-5.5 4.5,0 4.5,0 0,5.5 0,5.5 -4.5,0 -4.5,0 0,-5.5 z"
       id="path4788"
       inkscape:connector-curvature="0" />
    <path
       style="fill:#d7d7d7"
       d="m 221.72604,290.7074 c -12.30783,-8.22217 -6.67677,-27.73825 8,-27.72633 8.94663,0.007 15.09167,6.38476 15.09838,15.66953 0.003,4.12528 -0.52684,5.80384 -2.61538,8.28592 -5.39931,6.41673 -14.11936,8.02206 -20.483,3.77088 z m 13.06268,-5.70896 c 2.73961,-1.4662 4.15398,-6.3941 2.88224,-10.04222 -1.26053,-3.61595 -3.50646,-4.97889 -8.20448,-4.97889 -2.58265,0 -4.03339,0.68679 -5.56574,2.63486 -4.31902,5.49074 -1.03983,13.36514 5.56574,13.36514 1.92124,0 4.31625,-0.4405 5.32224,-0.97889 z m 20.03944,4.47889 0,-3.5 8.5,0 8.5,0 0,-19.5 0,-19.5 -6.5,0 -6.5,0 0,-3.5 0,-3.5 11,0 11,0 0,23 0,23 8.5,0 8.5,0 0,3.5 0,3.5 -21.5,0 -21.5,0 0,-3.5 z m 58.2334,-22.75 0.2666,-26.25 4.49018,0 c 4.15488,0 4.52825,0.21359 5,2.86035 l 0.50982,2.86036 2,-2.24837 c 4.6926,-5.27535 14.77492,-6.60945 20.54805,-2.71894 6.8667,4.62746 7.41463,6.7772 7.77309,30.4966 l 0.32114,21.25 -4.57114,0 -4.57114,0 0,-18.53212 c 0,-19.71485 -0.83105,-24.23673 -4.8496,-26.38739 -2.82521,-1.51201 -7.73759,-1.34532 -11.06521,0.37546 -5.24187,2.71067 -6.08519,6.37561 -6.08519,26.44518 l 0,18.09887 -5.0166,0 -5.01661,0 0.26661,-26.25 z m 83.2666,24.69383 c -9.30098,-4.78643 -10.76927,-16.91356 -2.96378,-24.47894 3.31956,-3.21744 4.03041,-3.46489 9.95366,-3.46489 5.71226,0 6.712,0.31348 9.56762,3 5.98621,5.63174 7.32886,11.86219 3.97359,18.43907 -3.7004,7.25337 -13.21728,10.26856 -20.53109,6.50476 z m 13.04545,-7.89838 c 5.10691,-5.1069 1.43805,-13.54545 -5.88921,-13.54545 -5.18468,0 -8.11079,2.88614 -8.11079,8 0,3.21009 0.5568,4.66438 2.33806,6.10676 3.34545,2.70898 8.64682,2.45382 11.66194,-0.56131 z M 193.30424,268.90197 c -0.36228,-1.14145 -0.5051,-2.22354 -0.31739,-2.40465 0.18772,-0.1811 11.14131,-4.65222 24.34131,-9.93581 21.96531,-8.7921 24.10597,-9.46221 25.25,-7.90422 0.6875,0.93626 1.25,2.02035 1.25,2.40907 0,0.70963 -47.19069,19.91097 -48.93473,19.91097 -0.51177,0 -1.22691,-0.93391 -1.58919,-2.07536 z m 173.57211,0.1654 c -1.35776,-2.537 -2.76511,-1.81271 25.37496,-13.05933 23.04446,-9.21008 25.13672,-9.653 24.3256,-5.14968 -0.14183,0.78743 -9.84251,5.17374 -22.56891,10.20488 -27.94231,11.04646 -25.836,10.42508 -27.13165,8.00413 z M 198.23946,254.08638 c -7.24672,-4.419 -9.77939,-11.23822 -6.93758,-18.6794 4.87793,-12.77269 23.17463,-12.77269 28.05256,0 2.10993,5.52475 1.38986,10.32813 -2.18519,14.57683 -5.10461,6.06648 -12.9285,7.76212 -18.92979,4.10257 z m 13.13415,-7.5636 c 3.03643,-3.03642 3.18724,-7.34426 0.38197,-10.91059 -2.97611,-3.78351 -9.87873,-3.78351 -12.85484,0 -4.48879,5.70657 -0.80571,13.36514 6.42742,13.36514 2.47924,0 4.35079,-0.75988 6.04545,-2.45455 z m 160.47448,7.75993 c -1.91403,-0.99296 -4.54136,-3.38038 -5.8385,-5.30538 -1.97297,-2.92796 -2.29208,-4.44809 -1.95244,-9.30082 0.35523,-5.07563 0.86,-6.25483 4.03768,-9.43251 3.192,-3.19201 4.334,-3.67681 9.43251,-4.00433 6.7706,-0.43492 11.06273,1.65876 14.30622,6.97852 3.79341,6.22168 1.78333,15.6372 -4.25645,19.9379 -4.10495,2.92299 -11.27619,3.43664 -15.72902,1.12662 z m 12.34521,-7.37796 c 1.97786,-1.55579 2.63486,-2.97347 2.63486,-5.68555 0,-5.03168 -3.18388,-8.24187 -8.17431,-8.24187 -5.0202,0 -7.82569,2.75525 -7.82569,7.68555 0,7.35438 7.49866,10.85645 13.36514,6.24187 z m -112.36514,-21.42742 0,-5.5 4.5,0 4.5,0 0,5.5 0,5.5 -4.5,0 -4.5,0 0,-5.5 z"
       id="path4786"
       inkscape:connector-curvature="0" />
    <path
       style="fill:#c6c6c6"
       d="m 223.04634,291.31425 c -7.35834,-3.62678 -10.03326,-12.61172 -6.03251,-20.26293 7.1683,-13.70893 27.82315,-8.64084 27.81059,6.82389 -0.009,11.4182 -11.49629,18.50672 -21.77808,13.43904 z m 10.14167,-5.71391 c 4.40633,-1.84109 6.38663,-6.40662 4.62432,-10.66123 -3.4474,-8.32276 -15.98417,-5.93981 -15.98417,3.03822 0,4.21809 2.91424,7.55884 7.78212,8.92105 0.15516,0.0434 1.76514,-0.5407 3.57773,-1.29804 z m 21.64015,3.87699 0,-3.5 8.5,0 8.5,0 0,-19.5 0,-19.5 -6.5,0 -6.5,0 0,-3.5 0,-3.5 11,0 11,0 0,23 0,23 8.5,0 8.5,0 0,3.5 0,3.5 -21.5,0 -21.5,0 0,-3.5 z m 59,-23 0,-26.5 4,0 c 3.92928,0 4,0.0639 4,3.61636 l 0,3.61636 3.92213,-3.54341 c 6.08808,-5.50021 15.64257,-6.17936 21.55089,-1.53187 5.50064,4.3268 5.98294,6.57263 6.35521,29.59256 l 0.34364,21.25 -4.58593,0 -4.58594,0 0,-18.53212 c 0,-19.71485 -0.83105,-24.23673 -4.8496,-26.38739 -2.88523,-1.54412 -7.75922,-1.33414 -11.27884,0.48593 -5.16365,2.67022 -6.19063,6.77966 -6.66846,26.68358 l -0.42612,17.75 -3.88849,0 -3.88849,0 0,-26.5 z m 82.4113,24.66846 c -5.99783,-3.7728 -7.64988,-6.9534 -7.21271,-13.88615 0.42153,-6.68462 2.48644,-10.00771 8.00175,-12.87732 8.38343,-4.3619 19.84666,1.94751 21.44616,11.80404 0.7225,4.4523 -2.34076,11.32323 -6.34132,14.22365 -3.88562,2.81708 -11.98877,3.1922 -15.89388,0.73578 z m 13.6112,-7.9242 c 2.55146,-3.24366 2.51519,-7.29098 -0.0951,-10.6094 -2.97611,-3.78351 -9.87873,-3.78351 -12.85484,0 -2.62392,3.33577 -2.64383,7.36919 -0.0526,10.66334 3.30925,4.20703 9.67166,4.18064 13.00257,-0.0539 z M 193.48445,268.771 c -0.31733,-1.21348 -0.48231,-2.26629 -0.36663,-2.33958 0.78624,-0.49809 46.4851,-18.43299 47.55644,-18.66393 0.74036,-0.15959 1.71299,0.65378 2.16142,1.80748 0.7613,1.95869 -0.7858,2.73706 -23.35454,11.75 -13.29341,5.3088 -24.45107,9.65236 -24.79478,9.65236 -0.34372,0 -0.88457,-0.99285 -1.20191,-2.20633 z m 174.01038,1.53966 c -2.62415,-2.62415 0.0832,-4.20026 23.4584,-13.65672 13.26879,-5.36789 24.23788,-9.62859 24.37577,-9.46821 0.13789,0.16038 0.54558,1.25257 0.90597,2.42708 0.60739,1.97942 -1.10109,2.83812 -23.37788,11.75 -26.45364,10.58284 -24.4383,9.87182 -25.36226,8.94785 z M 199.82816,254.8566 c -10.07293,-4.00482 -12.67164,-17.05379 -4.93669,-24.78874 7.77492,-7.77492 22.08059,-3.69728 24.99455,7.12436 3.10843,11.54383 -8.88532,22.10638 -20.05786,17.66438 z m 11.54545,-8.33382 c 5.155,-5.15499 1.34428,-13.94545 -6.04545,-13.94545 -2.86273,0 -4.32446,0.65717 -6.12959,2.75576 -4.89246,5.68783 -1.31809,13.64424 6.12959,13.64424 2.47924,0 4.35079,-0.75988 6.04545,-2.45455 z m 160.47448,7.703 c -4.95963,-2.49181 -8.02077,-7.51199 -8.01619,-13.14633 0.0128,-15.75358 20.76647,-21.00213 28.14465,-7.11772 6.78413,12.76651 -7.14346,26.78793 -20.12846,20.26405 z m 12.66562,-7.42276 c 1.53689,-1.44384 2.31445,-3.31369 2.31445,-5.56575 0,-4.72532 -1.43173,-6.91729 -5.36633,-8.21582 -6.84829,-2.26015 -12.86469,3.69583 -10.61601,10.5094 0.62279,1.88708 1.8861,3.87084 2.80735,4.40836 2.99339,1.74655 8.39333,1.18163 10.86054,-1.13619 z m -112.68555,-21.32569 0,-5.5 4.5,0 4.5,0 0,5.5 0,5.5 -4.5,0 -4.5,0 0,-5.5 z"
       id="path4784"
       inkscape:connector-curvature="0" />
    <path
       style="fill:#b9b9b9"
       d="m 222.81256,291.15334 c -3.78135,-1.97944 -7.9844,-8.86074 -7.9844,-13.07218 0,-4.44668 3.75453,-10.59759 7.88624,-12.91974 10.06895,-5.65906 22.11376,1.36734 22.11376,12.90016 0,11.23567 -11.96699,18.35194 -22.0156,13.09176 z m 13.1433,-6.79158 c 6.46329,-5.84919 -0.15585,-17.31328 -8.34755,-14.45763 -4.02403,1.40278 -5.70952,3.78721 -5.74835,8.13207 -0.0338,3.78389 1.22312,5.98585 4.4682,7.82757 2.45252,1.39192 7.25843,0.64215 9.6277,-1.50201 z m 18.8723,5.11557 0,-3.5 8.5,0 8.5,0 0,-19.5 0,-19.5 -6.5,0 -6.5,0 0,-3.53383 0,-3.53383 10.75,0.28383 10.75,0.28383 0.26877,22.75 0.26878,22.75 8.48122,0 8.48123,0 0,3.5 0,3.5 -21.5,0 -21.5,0 0,-3.5 z m 59,-23 0,-26.5 4,0 c 3.92666,0 4,0.0661 4,3.60359 l 0,3.60359 3.41423,-2.99773 c 7.23051,-6.34847 17.27668,-6.71854 23.14271,-0.85251 4.42959,4.42959 5.44306,10.33052 5.44306,31.69228 l 0,17.95078 -4.44281,0 -4.44281,0 -0.30719,-20.58851 -0.30719,-20.58852 -2.80576,-2.41148 c -3.3271,-2.85956 -10.00744,-3.28127 -13.47745,-0.85079 -4.90301,3.43421 -5.64866,6.66686 -6.04088,26.1893 l -0.36666,18.25 -3.90462,0 -3.90463,0 0,-26.5 z m 82.24086,24.5054 c -7.17065,-4.372 -9.51133,-14.31095 -4.97093,-21.10752 8.14856,-12.19765 27.11469,-6.53039 27.11469,8.10212 0,11.34521 -12.66592,18.78411 -22.14376,13.0054 z m 13.50914,-7.25384 c 3.02248,-2.82123 2.96984,-7.80317 -0.12041,-11.3958 -6.75584,-7.85413 -18.97647,1.99319 -13.02259,10.49354 3.18544,4.54785 8.82274,4.93485 13.143,0.90226 z M 193.54978,269.0208 c -0.34819,-1.33149 0.06,-2.39142 1.14453,-2.97184 1.39496,-0.74656 21.6514,-8.94904 42.25341,-17.10975 l 4.61956,-1.82987 1.05269,2.31042 c 1.03084,2.26243 0.57152,2.49911 -22.11956,11.39786 -12.74474,4.9981 -23.90061,9.35416 -24.79083,9.68014 -1.08902,0.39877 -1.79565,-0.0845 -2.1598,-1.47696 z m 173.97615,1.32096 c -2.70516,-2.70515 -0.10318,-4.22082 23.31625,-13.58186 23.01504,-9.19939 24.05841,-9.51576 25.08102,-7.60499 0.58685,1.09654 0.91804,2.13902 0.73598,2.31662 -0.2546,0.24835 -21.68171,8.90757 -47.38325,19.14872 -0.57873,0.2306 -1.36623,0.10528 -1.75,-0.27849 z M 198.84809,254.28188 c -5.26127,-2.72818 -8.01993,-7.54079 -8.01993,-13.99116 0,-4.87027 0.37072,-5.78826 3.83904,-9.50649 3.40423,-3.64951 4.4519,-4.16489 9.25,-4.55035 4.47856,-0.35979 5.99823,-0.0316 8.81901,1.90438 5.30805,3.64311 7.25862,6.92265 7.25862,12.2041 0,11.44275 -11.43072,18.97766 -21.14674,13.93952 z m 12.90749,-7.93941 c 3.12144,-3.96827 2.72309,-8.63999 -1.00415,-11.77625 -4.03189,-3.39262 -7.37495,-3.29105 -11.00019,0.33419 -3.51569,3.51569 -3.82389,7.662 -0.8505,11.44206 1.67218,2.12583 2.91389,2.63486 6.42742,2.63486 3.51353,0 4.75524,-0.50903 6.42742,-2.63486 z m 162.57258,8.9021 c -8.48662,-2.12489 -12.9318,-12.92086 -8.74845,-21.24731 5.23747,-10.42452 20.1075,-10.66251 25.982,-0.41583 2.78902,4.86479 2.84358,8.57225 0.20634,14.02007 -3.03341,6.26619 -10.27091,9.43804 -17.43989,7.64307 z m 10.17667,-8.51724 c 2.87992,-3.19943 3.39089,-5.25775 2.17272,-8.75221 -2.76933,-7.94408 -14.54783,-7.20025 -16.35613,1.03291 -0.66083,3.00872 1.50594,8.40287 3.7357,9.30001 3.38812,1.3632 8.49303,0.59084 10.44771,-1.58071 z m -112.67667,-21.25 0,-5.5 4.5,0 4.5,0 0,5.5 0,5.5 -4.5,0 -4.5,0 0,-5.5 z"
       id="path4782"
       inkscape:connector-curvature="0" />
    <path
       style="fill:#a6a6a6"
       d="m 224.21614,291.59897 c -10.03108,-4.54186 -12.06274,-17.30996 -3.89541,-24.48097 4.56605,-4.00905 9.33589,-4.8598 15.03793,-2.68217 14.32969,5.47256 11.46747,26.77206 -3.78688,28.1804 -2.36764,0.21859 -5.61935,-0.23111 -7.35564,-1.01726 z m 12.36202,-8.17633 c 6.20361,-7.0496 -2.16079,-17.38697 -10.55583,-13.04572 -3.33817,1.72623 -4.19417,3.35716 -4.19417,7.99107 0,7.96692 9.36352,11.17568 14.75,5.05465 z m 18.43664,6.30469 0.31336,-3.25 8.25,-0.29044 8.25,-0.29045 0,-19.45955 0,-19.45956 -6.5,0 -6.5,0 0,-3 0,-3 11,0 11,0 0,22.5 0,22.5 8.5,0 8.5,0 0,3.5 0,3.5 -21.56336,0 -21.56336,0 0.31336,-3.25 z m 58.81336,-22.75 0,-26 4,0 c 3.91995,0 4,0.0715 4,3.5712 l 0,3.5712 3.27444,-3.47192 c 7.82792,-8.30001 21.53999,-6.70632 26.3266,3.05983 1.57119,3.20569 1.90398,6.87416 2.22433,24.51969 l 0.37672,20.75 -4.54386,0 -4.54385,0 -0.30719,-20.42183 c -0.30142,-20.03812 -0.35274,-20.47027 -2.7315,-23 -1.96589,-2.09065 -3.35139,-2.57817 -7.32693,-2.57817 -4.04807,0 -5.39567,0.49306 -7.73141,2.8288 -4.1348,4.1348 -5.00556,8.81217 -5.01177,26.9212 l -0.006,16.25 -4,0 -4,0 0,-26 z m 83.01993,24.30455 c -14.30477,-7.41759 -8.08569,-29.59188 7.84431,-27.96906 7.90466,0.80526 13.50404,7.25745 13.38066,15.41862 -0.1566,10.35849 -11.97513,17.34685 -21.22497,12.55044 z m 11.90334,-6.89344 c 2.44745,-2.05939 3.07673,-3.37066 3.07673,-6.41111 0,-3.04046 -0.62928,-4.35172 -3.07673,-6.41111 -1.69219,-1.42389 -4.20181,-2.58889 -5.57692,-2.58889 -3.63379,0 -8.34635,5.08163 -8.34635,9 0,3.91837 4.71256,9 8.34635,9 1.37511,0 3.88473,-1.165 5.57692,-2.58889 z m -214.95174,-15.4643 c -0.93591,-1.74877 -0.65011,-2.18241 2.2274,-3.37964 40.45876,-16.83338 46.80107,-18.81029 46.80107,-14.58798 0,0.67711 -13.95192,6.52008 -43.22739,18.10334 -4.67512,1.84978 -4.73927,1.84828 -5.80108,-0.13572 z m 173.52751,0.0501 c -0.37491,-1.18122 -0.52806,-2.26658 -0.34035,-2.4119 0.99385,-0.76938 46.51759,-18.58927 47.48432,-18.58734 1.03642,0.002 2.785,2.9189 2.13053,3.55396 -0.20414,0.19808 -28.93215,11.7857 -47.4332,19.13246 -0.63781,0.25328 -1.4664,-0.50596 -1.8413,-1.68718 z M 200.47071,254.99288 c -6.56493,-2.06786 -10.06583,-7.89784 -9.41991,-15.68681 0.88101,-10.62373 11.19998,-16.37901 20.75743,-11.57719 9.68847,4.86766 10.90715,18.92019 2.17974,25.13465 -3.40057,2.42142 -9.5264,3.38641 -13.51726,2.12935 z m 11.10745,-8.26399 c 3.47619,-3.24474 3.09428,-8.86336 -0.82673,-12.16267 -1.69219,-1.42389 -4.13267,-2.58889 -5.42327,-2.58889 -1.2906,0 -3.73108,1.165 -5.42328,2.58889 -5.22633,4.39767 -3.67289,12.22297 2.92328,14.72568 2.34783,0.89081 6.28548,-0.26259 8.75,-2.56301 z m 160.32399,7.06085 c -13.01952,-6.80217 -9.45957,-25.88748 5.13561,-27.53257 12.32327,-1.38901 21.21345,12.97961 14.00472,22.63492 -5.08569,6.81173 -12.06064,8.59649 -19.14033,4.89765 z m 9.80717,-4.92083 c 5.89552,-2.05519 7.71377,-10.23322 3.18619,-14.33063 -1.00061,-0.90554 -3.42923,-1.90769 -5.39693,-2.22701 -3.05871,-0.49636 -4.01951,-0.1387 -6.62403,2.46582 -4.48328,4.48328 -3.54139,11.12549 1.97332,13.91579 3.04095,1.53865 2.95871,1.53654 6.86145,0.17603 z m -109.88116,-23.39158 0,-5.5 4.5,0 4.5,0 0,5.5 0,5.5 -4.5,0 -4.5,0 0,-5.5 z"
       id="path4780"
       inkscape:connector-curvature="0" />
    <path
       style="fill:#979797"
       d="m 224.27858,291.57073 c -1.67726,-0.73057 -4.31146,-2.82797 -5.85376,-4.66089 -2.56689,-3.05058 -2.76954,-3.87649 -2.39489,-9.76027 0.37271,-5.85335 0.72728,-6.71911 3.96816,-9.68916 4.88267,-4.47463 10.40097,-5.35331 16.14798,-2.57123 11.13323,5.3895 11.50538,20.26985 0.64621,25.83815 -4.97193,2.54948 -8.11111,2.76105 -12.5137,0.8434 z m 11.6265,-7.51648 c 1.995,-1.99499 2.92308,-3.92442 2.92308,-6.07692 0,-3.66676 -4.6565,-9 -7.85798,-9 -5.90608,0 -10.96454,5.58668 -9.68273,10.69383 1.79803,7.16393 9.52105,9.47967 14.61763,4.38309 z m 18.92308,5.92308 0,-3 8.5,0 8.5,0 0,-20 0,-20 -6.5,0 -6.5,0 0,-3 0,-3 11,0 11,0 0,23 0,23 8.5,0 8.5,0 0,3 0,3 -21.5,0 -21.5,0 0,-3 z m 59,-23 0,-26 4,0 c 3.95467,0 4.00006,0.0425 4.00497,3.75 l 0.005,3.75 2.24504,-2.64964 c 3.69693,-4.36321 7.22655,-6.00992 12.99292,-6.06174 7.41219,-0.0666 11.41059,2.21809 14.0573,8.03238 1.89698,4.1673 2.17203,6.89356 2.51503,24.929 l 0.38508,20.25 -4.60267,0 -4.60267,0 0,-19.45295 c 0,-20.08177 -0.49867,-23.12836 -4.15992,-25.41485 -2.87155,-1.79331 -9.3954,-1.65359 -12.32186,0.2639 -5.53212,3.62479 -5.99179,5.49404 -6.34613,25.80641 l -0.32792,18.79749 -3.92208,0 -3.92209,0 0,-26 z m 84.33291,24.94632 c -4.00994,-1.21616 -8.06151,-5.98269 -8.90441,-10.47576 -1.56601,-8.34757 2.49205,-15.16804 10.44186,-17.54987 3.69919,-1.1083 4.76829,-1.02615 8.89322,0.68339 2.88505,1.19568 5.56326,3.24109 6.96249,5.31741 4.24091,6.29307 2.30247,16.39579 -3.92833,20.47363 -3.04914,1.99556 -9.53572,2.74284 -13.46483,1.5512 z m 9.59557,-6.40934 c 3.21866,-1.66443 4.08506,-3.35204 4.03972,-7.86877 -0.0356,-3.55017 -1.41997,-5.78323 -4.65246,-7.50487 -3.362,-1.79061 -5.87823,-1.40236 -9.23901,1.42555 -2.44745,2.05939 -3.07673,3.37065 -3.07673,6.41111 0,3.04045 0.62928,4.35172 3.07673,6.41111 3.50609,2.95018 5.8139,3.21393 9.85175,1.12587 z M 194.37755,270.19338 c -2.4416,-2.44159 0.55244,-4.14559 22.92541,-13.04753 12.89889,-5.13231 23.91887,-9.04325 24.48886,-8.69098 0.56999,0.35227 1.03634,1.20315 1.03634,1.89084 0,1.32775 -47.50871,20.78957 -48.45061,19.84767 z m 173.00788,-0.9274 c -0.34256,-0.8927 -0.27058,-1.96529 0.15995,-2.38355 1.10318,-1.07173 45.30587,-18.9051 46.85913,-18.9051 0.70235,0 1.43462,0.7875 1.62726,1.75 0.34088,1.70313 -4.14832,3.69947 -43.86356,19.50609 -3.83078,1.52465 -4.20922,1.52722 -4.78278,0.0326 z M 200.56868,254.55959 c -6.84029,-2.46194 -9.74052,-6.5961 -9.74052,-13.88472 0,-10.8014 11.33147,-17.79361 20.98007,-12.94599 7.46945,3.75279 10.3901,13.84899 6.06041,20.9499 -3.3967,5.57077 -10.98985,8.15193 -17.29996,5.88081 z m 10.18275,-7.17115 c 5.08014,-4.27465 4.08862,-11.9209 -1.86564,-14.38724 -6.13952,-2.54307 -12.05763,1.32813 -12.05763,7.88724 0,3.13971 0.60682,4.42171 3.07672,6.5 1.6922,1.42389 4.13268,2.58889 5.42328,2.58889 1.2906,0 3.73108,-1.165 5.42327,-2.58889 z m 163.68105,7.57318 c -10.37205,-3.1852 -13.71813,-16.80381 -6.02008,-24.50187 10.5036,-10.5036 28.3213,0.0135 24.44036,14.42623 -1.12589,4.18123 -6.85353,10.08147 -9.8094,10.105 -0.94336,0.007 -2.6152,0.20406 -3.7152,0.43677 -1.1,0.23272 -3.30305,0.023 -4.89568,-0.46613 z m 8.30449,-6.43713 c 5.6063,-2.89913 6.32139,-10.64773 1.34395,-14.56298 -3.67333,-2.88944 -7.84723,-2.54355 -11.32968,0.9389 -3.3268,3.3268 -3.81281,7.36165 -1.31608,10.92622 2.79778,3.99439 6.90064,4.97379 11.30181,2.69786 z m -110.50683,-18.942 c -0.29439,-0.76716 -0.39276,-3.12966 -0.21862,-5.25 0.30905,-3.76273 0.41854,-3.86253 4.56664,-4.16266 l 4.25,-0.3075 0,5.5575 0,5.5575 -4.03138,0 c -2.52588,0 -4.23128,-0.5209 -4.56664,-1.39484 z"
       id="path4778"
       inkscape:connector-curvature="0" />
    <path
       style="fill:#8c8c8c"
       d="m 225.2906,291.94467 c -1.67066,-0.50293 -4.34191,-2.27588 -5.93612,-3.93987 -2.36835,-2.47203 -2.96606,-4.0774 -3.26758,-8.77645 -0.61756,-9.62432 4.71231,-15.63564 13.86317,-15.63564 10.60089,0 17.68323,10.83753 13.35493,20.43598 -2.90463,6.44131 -11.03913,10.01582 -18.0144,7.91598 z m 10.61448,-7.89042 c 1.995,-1.99499 2.92308,-3.92442 2.92308,-6.07692 0,-4.22836 -4.7013,-9 -8.86731,-9 -7.89983,0 -11.78932,10.45795 -5.8042,15.60613 3.85704,3.31769 8.09231,3.12691 11.74843,-0.52921 z m 18.92308,5.96201 0,-2.96106 8.75,-0.28894 8.75,-0.28893 0.27114,-19.75 0.27114,-19.75 -7.02114,0 -7.02114,0 0,-3 0,-3 11,0 11,0 0,23 0,23 8.5,0 8.5,0 0,3 0,3 -21.5,0 -21.5,0 0,-2.96107 z m 59,-23.03893 0,-26 4,0 c 3.95037,0 4,0.0462 4,3.72286 l 0,3.72286 2.94827,-3.22794 c 3.643,-3.98858 6.74476,-5.21778 13.16649,-5.21778 6.80303,0 10.23309,2.02139 12.94856,7.6308 2.06868,4.27332 2.30944,6.47424 2.73774,25.02728 l 0.46959,20.34192 -4.02926,0 -4.02927,0 -0.39323,-19.25 c -0.44683,-21.87358 -1.21869,-24.73675 -7.20081,-26.71103 -6.55088,-2.16199 -13.67251,1.898 -15.61883,8.90418 -0.54345,1.95627 -0.99061,11.09435 -0.99367,20.30685 l -0.006,16.75 -4,0 -4,0 0,-26 z m 83.07399,23.80661 c -13.4942,-7.0325 -8.81978,-27.15372 6.30377,-27.13478 8.34686,0.0104 14.62224,6.1243 14.62224,14.24586 0,11.3349 -10.95757,18.08397 -20.92601,12.88892 z m 11.07641,-4.8871 c 1.1104,-0.59427 2.66186,-2.61927 3.44768,-4.5 3.78711,-9.06383 -7.62359,-16.39401 -14.62352,-9.39407 -2.27294,2.27294 -2.68997,8.69558 -0.72456,11.15911 2.87128,3.59898 8.05845,4.7911 11.9004,2.73496 z M 194.37755,270.19338 c -2.4416,-2.44159 0.55244,-4.14559 22.92541,-13.04753 12.89889,-5.13231 23.91887,-9.04325 24.48886,-8.69098 0.56999,0.35227 1.03634,1.20315 1.03634,1.89084 0,1.32775 -47.50871,20.78957 -48.45061,19.84767 z m 172.97281,-1.01878 c -0.32327,-0.84244 -0.23551,-1.87081 0.19502,-2.28527 0.91854,-0.88427 45.88833,-18.912 47.17556,-18.912 0.48068,0 1.08553,0.80904 1.34411,1.79786 0.39794,1.52171 -3.26207,3.26728 -23.82838,11.36449 -19.94991,7.85451 -24.40373,9.29249 -24.88631,8.03492 z M 197.24812,253.09165 c -6.28153,-3.83047 -8.35356,-13.92413 -4.15003,-20.21644 7.94647,-11.89514 26.73007,-6.51844 26.73007,7.65133 0,5.04655 -2.60024,10.0406 -6.4745,12.43503 -4.24439,2.62317 -11.91554,2.68513 -16.10554,0.13008 z m 11.92312,-4.22478 c 5.35686,-2.44075 6.52703,-10.11034 2.20237,-14.435 -5.50425,-5.50425 -14.54545,-1.58277 -14.54545,6.30888 0,7.14003 5.93363,11.04646 12.34308,8.12612 z m 159.62222,2.31105 c -4.95039,-4.95038 -5.94116,-9.71598 -3.34163,-16.07314 3.38026,-8.26641 14.3081,-11.55532 21.22797,-6.3889 4.66858,3.4856 6.37913,6.72699 6.37913,12.08806 0,8.89341 -5.69922,14.17339 -15.29876,14.17339 -4.64972,0 -5.54787,-0.38057 -8.96671,-3.79941 z m 16.7847,-4.72259 c 1.26542,-1.45637 2.25,-3.91157 2.25,-5.61069 0,-4.16601 -4.77164,-8.86731 -9,-8.86731 -2.1525,0 -4.08193,0.92808 -6.07692,2.92308 -3.97671,3.9767 -3.93409,8.21976 0.12331,12.27716 2.63217,2.63216 3.54998,2.96622 6.75,2.45683 2.20956,-0.35172 4.61127,-1.63417 5.95361,-3.17907 z m -112.75,-21.03837 0,-5.56036 3.75,0.31036 3.75,0.31037 0.30226,5.25 0.30226,5.25 -4.05226,0 -4.05226,0 0,-5.56037 z"
       id="path4776"
       inkscape:connector-curvature="0" />
    <path
       style="fill:#828282"
       d="m 226.84126,292.24941 c -12.44664,-2.36864 -15.09232,-21.04279 -3.80799,-26.87815 9.87198,-5.105 21.29489,1.65709 21.29489,12.60607 0,9.19035 -8.35556,16.0098 -17.4869,14.27208 z m 9.35054,-7.90844 c 1.89585,-1.89586 2.62743,-3.65137 2.60456,-6.25 -0.0705,-8.00981 -8.59241,-11.92144 -14.63971,-6.71977 -3.96635,3.41171 -3.96635,9.80055 0,13.21226 3.80847,3.27591 8.61356,3.1791 12.03515,-0.24249 z m 19.63636,5.63636 0,-3 8.5,0 8.5,0 0,-20 0,-20 -7,0 -7,0 0,-3 0,-3 10.48123,0 10.48122,0 0.26878,22.75 0.26877,22.75 8.75,0.28893 8.75,0.28894 0,2.96106 0,2.96107 -21,0 -21,0 0,-3 z m 58,-23 0,-26 4,0 c 3.9452,0 4,0.0506 4,3.69617 l 0,3.69616 3.25,-3.07617 c 4.64785,-4.39926 6.90857,-5.31616 13.10753,-5.31616 4.50608,0 6.06433,0.48409 8.70172,2.70331 5.44819,4.58435 5.94075,7.05219 5.94075,29.76457 l 0,20.53212 -3.5,0 -3.5,0 0,-16.45078 c 0,-18.78289 -1.1177,-25.92501 -4.39293,-28.07102 -6.48713,-4.25053 -14.5588,-1.99657 -17.71196,4.94594 -1.57571,3.46933 -1.85445,6.71724 -1.87315,21.82586 l -0.022,17.75 -4,0 -4,0 0,-26 z m 84.74052,24.58226 c -4.82848,-1.73786 -6.19807,-2.91936 -8.14841,-7.02938 -2.1663,-4.56515 -1.99934,-9.056 0.50215,-13.5068 7.38547,-13.14068 26.91679,-7.61929 26.902,7.60505 -0.009,9.52427 -10.02802,16.25235 -19.25574,12.93113 z m 10.54784,-6.59445 c 3.3757,-2.65532 4.27796,-6.99198 2.26471,-10.88518 -4.5178,-8.73646 -16.55307,-5.9028 -16.55307,3.89737 0,7.81419 8.16274,11.80623 14.28836,6.98781 z m -41.62659,-16.17322 c -0.34805,-1.33093 0.16617,-2.18099 1.6675,-2.75653 1.1939,-0.45768 11.74692,-4.72608 23.45116,-9.48532 11.70424,-4.75924 21.71674,-8.38351 22.25,-8.05393 2.84767,1.75995 -1.02978,3.89908 -22.94793,12.66004 -21.83552,8.72792 -23.9613,9.3926 -24.42073,7.63574 z m -173.48121,-0.51367 c 0.47986,-2.49167 46.79295,-20.94809 47.95752,-19.11174 0.45721,0.72095 0.83317,1.53582 0.83547,1.81082 0.006,0.66654 -46.12381,19 -47.80647,19 -0.72255,0 -1.16648,-0.76458 -0.98652,-1.69908 z m 3.79195,-15.02016 c -10.77175,-7.49007 -8.5853,-22.62002 3.80532,-26.33234 3.56001,-1.06661 4.80489,-0.99759 8.67662,0.48103 6.39683,2.44297 9.04555,6.51093 9.04555,13.89231 0,5.55221 -0.19499,6.00365 -4.21128,9.75 -3.80607,3.55027 -4.72279,3.92824 -9.52749,3.92824 -3.40141,0 -6.20677,-0.61924 -7.78872,-1.71924 z m 11.96873,-4.75038 c 7.95723,-4.11484 4.62153,-16.53038 -4.44124,-16.53038 -6.73446,0 -10.65685,6.29551 -7.9535,12.76553 2.05414,4.91624 7.16575,6.46887 12.39474,3.76485 z m 161.36309,4.51362 c -4.67579,-2.85101 -6.68895,-6.51255 -6.68895,-12.16591 0,-5.27712 1.85218,-8.6459 6.7716,-12.3163 3.47262,-2.59095 11.24649,-2.68719 15.06306,-0.18648 8.61848,5.64704 8.75946,19.47751 0.25141,24.66517 -4.19102,2.55542 -11.20926,2.55702 -15.39712,0.004 z m 13.77259,-5.96708 c 1.995,-1.99499 2.92308,-3.92442 2.92308,-6.07692 0,-4.45424 -4.69057,-9 -9.28671,-9 -4.69137,0 -8.71329,4.02192 -8.71329,8.71329 0,4.59614 4.54576,9.28671 9,9.28671 2.1525,0 4.08193,-0.92808 6.07692,-2.92308 z m -112.07692,-21.57692 0,-5.5 3.5,0 3.5,0 0,5.5 0,5.5 -3.5,0 -3.5,0 0,-5.5 z"
       id="path4774"
       inkscape:connector-curvature="0" />
    <path
       style="fill:#7f7f7f"
       d="m 227.32816,291.96553 c -7.36254,-1.57289 -11.49002,-6.55266 -11.49626,-13.87017 -0.007,-8.2793 5.7813,-14.11803 13.99626,-14.11803 13.33664,0 19.64283,15.26158 10.08853,24.41519 -3.25274,3.11631 -8.17999,4.51482 -12.58853,3.57301 z m 9.04545,-7.44275 c 5.60263,-5.60262 1.71585,-15.54545 -6.07692,-15.54545 -4.78318,0 -9.46853,4.4535 -9.46853,9 0,7.57439 10.21533,11.87558 15.54545,6.54545 z m 19.45455,5.45455 0,-3 8.5,0 8.5,0 0,-20 0,-20 -7,0 -7,0 0,-3 0,-3 10.5,0 10.5,0 0,23 0,23 9,0 9,0 0,3 0,3 -21,0 -21,0 0,-3 z m 58,-23 0,-26 4,0 4,0 0,4.0348 0,4.03479 2.9954,-3.41157 c 4.01322,-4.57081 7.83336,-6.00281 14.53178,-5.44732 4.25875,0.35316 6.16356,1.07688 8.35155,3.17312 4.4022,4.21757 5.12127,8.42734 5.12127,29.9822 l 0,19.63398 -3.40957,0 -3.40957,0 -0.34043,-19.92861 c -0.31383,-18.37134 -0.5042,-20.14908 -2.43626,-22.75 -2.81998,-3.79624 -8.07915,-5.08877 -13.08909,-3.21685 -2.87993,1.07606 -4.3666,2.51549 -6.06508,5.87236 -2.08235,4.11553 -2.25,5.77232 -2.25,22.23499 l 0,17.78811 -4,0 -4,0 0,-26 z m 86.16932,24.92435 c -4.36388,-0.92337 -8.93007,-5.39378 -10.34993,-10.13282 -1.56546,-5.22505 0.20423,-10.72707 4.72776,-14.69879 3.00515,-2.63855 4.31377,-3.09274 8.91092,-3.09274 5.96697,0 10.28172,2.66234 13.07785,8.06946 5.40032,10.44307 -4.43843,22.37881 -16.3666,19.85489 z m 9.50219,-7.31822 c 3.96635,-3.41171 3.96635,-9.80055 0,-13.21226 -6.19716,-5.33057 -14.67151,-1.51483 -14.67151,6.60613 0,8.12096 8.47435,11.9367 14.67151,6.60613 z M 194.31644,268.95837 c -0.39271,-0.63542 -0.32573,-1.53045 0.14885,-1.98896 0.47458,-0.45851 11.17013,-4.94548 23.76789,-9.97106 17.70267,-7.06206 23.09345,-8.84028 23.73468,-7.82921 0.45632,0.7195 0.8329,1.53319 0.83684,1.80819 0.006,0.39877 -39.64202,16.36463 -46.12539,18.57437 -0.90687,0.30909 -1.97016,0.0421 -2.36287,-0.59333 z m 173.13781,-0.51305 c -0.3809,-0.99261 0.19759,-1.83366 1.64301,-2.38874 1.227,-0.47119 11.85963,-4.71741 23.62808,-9.43604 11.76844,-4.71863 21.78094,-8.34214 22.25,-8.05225 2.63497,1.62851 -1.3542,3.7895 -22.44966,12.16134 -12.81637,5.08623 -23.56822,9.2477 -23.89301,9.2477 -0.3248,0 -0.85508,-0.68941 -1.17842,-1.53201 z M 199.2466,254.06292 c -2.76807,-1.1922 -7.26518,-6.62679 -8.04076,-9.71695 -2.55897,-10.19571 7.33382,-20.20816 17.22288,-17.4312 4.86699,1.3667 6.58706,2.68059 9.26912,7.08024 3.6458,5.98059 2.44421,12.564 -3.26698,17.89941 -2.82754,2.6415 -11.28251,3.84897 -15.18426,2.1685 z m 10.63695,-5.11523 c 1.05815,-0.56631 2.63211,-2.39915 3.49768,-4.07299 4.57949,-8.85575 -6.57602,-17.08252 -14.23297,-10.49629 -3.87717,3.335 -3.82147,9.91075 0.11261,13.2947 2.84699,2.44888 7.4063,2.99593 10.62268,1.27458 z m 161.12658,3.99923 c -4.44025,-2.70713 -7.52484,-9.60805 -6.57835,-14.71724 0.92396,-4.98756 6.66117,-10.72477 11.64873,-11.64873 5.10919,-0.94649 12.01011,2.1381 14.71724,6.57835 2.4063,3.94683 2.65988,10.70008 0.55465,14.77115 -3.41437,6.60266 -13.61474,9.11811 -20.34227,5.01647 z m 13.89495,-5.89267 c 5.98853,-5.98853 2.18297,-14.97343 -6.37237,-15.04512 -5.20179,-0.0436 -8.71633,3.47096 -8.67275,8.67274 0.0718,8.57098 9.04565,12.37185 15.04512,6.37238 z m -112.07692,-21.07692 0,-5 3.5,0 3.5,0 0,5 0,5 -3.5,0 -3.5,0 0,-5 z"
       id="path4772"
       inkscape:connector-curvature="0" />
  </g>
</svg>
